<svg version="1.2" xmlns="http://www.w3.org/2000/svg" viewBox="0 0 25 25" width="25" height="25"><style>.a{fill:#1c242a}.b{fill:#fff}</style><path class="a" d="m12.5 0l12.5 12.5-12.5 12.5-12.5-12.5z"/><path fill-rule="evenodd" class="b" d="m12 9c3.9 0 7 4 7 4 0 0-3.1 4-7 4-3.9 0-7-4-7-4 0 0 3.1-4 7-4zm-5.6 4c0 0 2.5 3.3 5.6 3.3 3.1 0 5.6-3.3 5.6-3.3 0 0-2.5-3.3-5.6-3.3-3.1 0-5.6 3.3-5.6 3.3zm5.6-3.2c1.7 0 3.1 1.4 3.1 3.2 0 1.8-1.4 3.2-3.1 3.2-1.7 0-3.1-1.4-3.1-3.2 0-1.8 1.4-3.2 3.1-3.2z"/></svg>