<svg version="1.2" xmlns="http://www.w3.org/2000/svg" viewBox="0 0 25 25" width="25" height="25"><style>.a{fill:#1c242a}.b{fill:#fff}</style><path class="a" d="m12.5 0l12.5 12.5-12.5 12.5-12.5-12.5z"/><path class="b" d="m11.4 11.5c1.9 0 4.1-0.6 4.1 1.6 0 2.3-1.5 4.9-3.4 4.9-1.9 0-4.1-2.6-4.1-4.9 0-2.2 1.5-1.6 3.4-1.6zm-2.7-4.1c0.4 0 0.7 0.4 0.7 0.9v4.8c0 0.5-0.3 0.8-0.7 0.8-0.4 0-0.7-0.3-0.7-0.8v-4.8c0-0.5 0.3-0.9 0.7-0.9zm2-1.6c0.4 0 0.7 0.4 0.7 0.8v6.5c0 0.5-0.3 0.8-0.7 0.8-0.3 0-0.6-0.3-0.6-0.8v-6.5c0-0.4 0.3-0.8 0.6-0.8zm2.1-0.8c0.4 0 0.7 0.4 0.7 0.8v7.3c0 0.5-0.3 0.8-0.7 0.8-0.4 0-0.7-0.3-0.7-0.8v-7.3c0-0.4 0.3-0.8 0.7-0.8zm2 1.6c0.4 0 0.7 0.4 0.7 0.8v5.7c0 0.5-0.3 0.8-0.7 0.8-0.3 0-0.6-0.3-0.6-0.8v-5.7c0-0.4 0.3-0.8 0.6-0.8zm-2.8 6.4l3.2-0.4c0.4-0.4 2.4-2.1 2.8-1.6 0.4 0.5-0.6 2.5-1 3l-3 4c-0.4 0.5-1.6-1.5-2-2-0.4-0.5-0.4-2.5 0-3z"/></svg>